<?xml version="1.0" encoding="utf-8"?>
<!-- Generator: Adobe Illustrator 25.4.1, SVG Export Plug-In . SVG Version: 6.00 Build 0)  -->
<svg version="1.1" id="Layer_1" xmlns="http://www.w3.org/2000/svg" xmlns:xlink="http://www.w3.org/1999/xlink" x="0px" y="0px"
	 viewBox="0 0 48 48" style="enable-background:new 0 0 48 48;" xml:space="preserve">
<style type="text/css">
	.st0{fill:#00A9CE;}
</style>
<g>
	<path class="st0" d="M35.1,27.7V10.1c0-0.4-0.2-0.8-0.5-1.1l-9.3-8.6c-0.5-0.5-1.4-0.5-1.9,0L13.5,9C13.2,9.3,13,9.6,13,10.1v17.6
		L2.6,40.5l0,0c-0.3,0.4-0.4,1-0.2,1.5s0.7,0.8,1.3,0.8h14.1c0.7,3,3.3,5.2,6.4,5.2s5.8-2.2,6.4-5.2h13.6c0.6,0,1.1-0.3,1.3-0.8
		s0.2-1.1-0.2-1.5L35.1,27.7z M29.5,40c-0.8,0-1.4,0.6-1.4,1.4c0,2.1-1.7,3.7-3.7,3.7s-3.7-1.7-3.7-3.7c0-0.8-0.6-1.4-1.4-1.4H6.8
		l8.8-10.8c0.2-0.3,0.3-0.6,0.3-0.9V10.7l8.4-7.3l7.9,7.3v17.5c0,0.3,0.1,0.7,0.3,0.9L41.3,40H29.5z"/>
	<path class="st0" d="M24.1,23.1c-0.8,0-1.4,0.6-1.4,1.4v15.8c0,0.8,0.6,1.4,1.4,1.4s1.4-0.6,1.4-1.4V24.6
		C25.5,23.8,24.8,23.1,24.1,23.1z"/>
</g>
</svg>
